<?xml version="1.0" encoding="utf-8"?>
<!-- Generator: Adobe Illustrator 18.1.1, SVG Export Plug-In . SVG Version: 6.00 Build 0)  -->
<svg version="1.1" id="Layer_1" xmlns="http://www.w3.org/2000/svg" xmlns:xlink="http://www.w3.org/1999/xlink" x="0px" y="0px"
	 viewBox="0 0 241 202.5" enable-background="new 0 0 241 202.5" xml:space="preserve">
<image overflow="visible" width="90" height="90" xlink:href="../../../../../../Downloads/iki-logo.jpg"  transform="matrix(2.7407 0 0 2.7407 -687.1667 -123.3333)">
</image>
<ellipse fill="#1D5632" cx="120.1" cy="106.5" rx="112.1" ry="87"/>
<ellipse fill="none" stroke="#FFFFFF" stroke-width="3" stroke-miterlimit="10" cx="121.1" cy="106.4" rx="103.1" ry="77.6"/>
<path fill="none" stroke="#FFFFFF" stroke-width="3" stroke-miterlimit="10" d="M164,107.6c-1.2-6.7,2.5-12,7-16.5
	c-1.1-1.9-1-4.6,0.7-6.1c3.5-3,6.8-6.3,10-9.8c0.4-0.4,0.8-0.8,1.3-1c-14.1-20.1-40.9-33.7-71.7-33.7C65.8,40.5,29,70,29,106.5
	s36.8,66,82.2,66c29.4,0,55.1-12.4,69.7-30.9c-2.6-2-3.5-6.3,0.3-8.1c0.2-0.1,0.4-0.3,0.6-0.6c-3.4-3.9-7-7.7-10.2-11.7
	C168.5,117.1,164.9,112.7,164,107.6z"/>
<path fill="none" stroke="#FFFFFF" stroke-width="3" stroke-miterlimit="10" d="M138.7,132.4c-1.4-1.1-2.2-2.8-1.7-5
	c3.4-14.9,7.8-30,0.3-44.4c-1.8-3.5,0.7-6.7,3.6-7.4c0.6-1,1.6-1.8,2.7-2.3c-10.7-12.5-27.4-20.6-46-20.6
	c-32.3,0-58.6,24.1-58.6,53.9s26.2,53.9,58.6,53.9c19.3,0,36.4-8.6,47-21.8c-1.3-0.3-2.7-1.1-4.2-2.4
	C138.9,135.1,138.5,133.7,138.7,132.4z"/>
<g>
	<g>
		
			<text transform="matrix(1 0 0 1 122.8584 140.3203)" fill="#FFFFFF" stroke="#000000" stroke-width="3" stroke-miterlimit="10" font-family="'AvenirNext-Heavy'" font-size="97.7614">K</text>
		
			<text transform="matrix(1 0 0 1 73.0566 140.3193)" fill="#FFFFFF" stroke="#000000" stroke-width="3" stroke-miterlimit="10" font-family="'AvenirNext-Heavy'" font-size="97.7614">I</text>
		
			<text transform="matrix(1 0 0 1 202.5264 140.3193)" fill="#FFFFFF" stroke="#000000" stroke-width="3" stroke-miterlimit="10" font-family="'AvenirNext-Heavy'" font-size="97.7614">I</text>
	</g>
	<g>
		
			<text transform="matrix(1 0 0 1 189.7498 115.4737)" fill="#FFFFFF" stroke="#000000" stroke-width="3" stroke-miterlimit="10" font-family="'AvenirNext-Heavy'" font-size="39.7254">-</text>
	</g>
	<g>
		
			<text transform="matrix(1 0 0 1 108.7498 115.4737)" fill="#FFFFFF" stroke="#000000" stroke-width="3" stroke-miterlimit="10" font-family="'AvenirNext-Heavy'" font-size="39.7254">-</text>
	</g>
</g>
</svg>
