<?xml version="1.0" standalone="no"?>
<!DOCTYPE svg PUBLIC "-//W3C//DTD SVG 20010904//EN"
 "http://www.w3.org/TR/2001/REC-SVG-20010904/DTD/svg10.dtd">
<svg version="1.0" xmlns="http://www.w3.org/2000/svg"
 width="800.000000pt" height="800.000000pt" viewBox="0 0 800.000000 800.000000"
 preserveAspectRatio="xMidYMid meet">
<metadata>
Created by potrace 1.11, written by Peter Selinger 2001-2013
</metadata>
<g transform="translate(0.000000,800.000000) scale(0.100000,-0.100000)"
fill="#000000" stroke="none">
<path d="M3660 6974 c-25 -2 -101 -8 -170 -14 -574 -48 -1165 -212 -1655 -459
-383 -194 -692 -418 -975 -708 -233 -237 -393 -460 -525 -728 -88 -181 -136
-307 -180 -480 -56 -219 -69 -332 -69 -585 0 -253 13 -366 69 -585 85 -334
251 -662 485 -965 94 -120 335 -367 463 -473 637 -528 1434 -842 2387 -939
165 -17 726 -17 890 0 903 94 1654 378 2290 868 63 49 199 172 301 274 189
189 304 329 423 518 l59 92 193 0 194 0 -2 1238 -3 1237 -210 3 -210 2 -40 63
c-153 238 -468 579 -705 761 -632 487 -1378 771 -2275 866 -100 11 -651 21
-735 14z m685 -274 c1140 -96 2143 -585 2719 -1325 88 -113 87 -105 14 -105
l-63 0 -60 77 c-33 43 -118 136 -190 208 -518 521 -1272 880 -2105 1004 -265
39 -370 46 -695 46 -403 0 -641 -24 -986 -101 -1268 -280 -2224 -1078 -2450
-2044 -51 -218 -65 -508 -34 -729 106 -757 661 -1450 1505 -1880 433 -220 908
-360 1450 -426 184 -23 646 -31 847 -16 580 44 1098 181 1578 415 450 220 843
530 1103 869 l75 97 59 0 c32 0 58 -3 58 -8 0 -13 -142 -197 -230 -297 -257
-294 -639 -572 -1062 -774 -1163 -556 -2670 -555 -3833 3 -850 408 -1421 1041
-1610 1786 -44 174 -59 300 -59 505 0 343 70 640 225 952 442 889 1476 1542
2714 1712 83 12 195 25 250 30 143 12 638 13 780 1z m-384 -405 c644 -62 1235
-291 1699 -661 91 -72 340 -317 359 -353 11 -20 10 -21 -50 -21 l-62 0 -132
129 c-440 430 -1019 698 -1711 792 -132 18 -207 22 -439 22 -313 0 -473 -16
-739 -74 -836 -183 -1533 -686 -1846 -1334 -323 -666 -221 -1420 272 -2010
433 -519 1095 -860 1874 -966 229 -32 649 -32 878 0 566 77 1053 269 1474 582
53 40 169 144 256 231 l159 159 60 -3 61 -3 -77 -92 c-96 -114 -252 -261 -380
-360 -443 -340 -969 -545 -1597 -625 -164 -20 -661 -17 -830 5 -736 100 -1345
382 -1800 837 -314 314 -507 652 -594 1041 -185 837 203 1671 1030 2212 424
278 960 452 1539 500 116 10 460 5 596 -8z m-436 -434 c232 -41 437 -110 636
-212 171 -88 372 -232 484 -348 l39 -41 -71 0 -71 0 -73 62 c-534 447 -1308
586 -1992 357 -720 -241 -1218 -845 -1279 -1549 -19 -227 6 -434 82 -661 122
-369 391 -710 739 -937 368 -241 862 -363 1306 -323 464 42 868 214 1205 514
l75 67 70 0 69 0 -74 -76 c-383 -387 -943 -614 -1520 -614 -990 0 -1839 647
-2026 1544 -31 150 -42 394 -25 541 41 348 171 659 390 934 333 418 839 690
1411 760 133 17 489 6 625 -18z m-235 -1836 l0 -1135 -350 0 -350 0 0 1135 0
1135 350 0 350 0 0 -1135z m1670 700 l0 -435 48 0 47 0 315 435 315 435 398 0
c218 0 397 -2 397 -5 0 -2 -189 -234 -420 -515 l-421 -511 441 -605 c243 -333
444 -612 447 -620 4 -12 -54 -14 -414 -14 l-420 0 -319 475 -319 475 -42 0
-43 0 0 -475 0 -475 -335 0 -335 0 0 1135 0 1135 330 0 330 0 0 -435z m2770
-700 l0 -1135 -347 2 -348 3 -3 1133 -2 1132 350 0 350 0 0 -1135z m-3830 55
l0 -60 -135 0 -135 0 0 60 0 60 135 0 135 0 0 -60z m2790 0 l0 -60 -140 0
-140 0 0 60 0 60 140 0 140 0 0 -60z"/>
</g>
</svg>
